<svg width="33" height="31" viewBox="0 0 33 31" fill="none" xmlns="http://www.w3.org/2000/svg">
<rect x="0.5" y="0.5" width="32" height="30" rx="15" fill="#3C3C43"/>
<rect x="0.5" y="0.5" width="32" height="30" rx="15" stroke="#3C3C43"/>
<path d="M16.152 20C15.732 18.944 15.396 18.344 13.92 16.316C12.972 15.02 12.612 14.168 12.612 13.292C12.612 12.236 13.524 11.372 14.58 11.372C15.324 11.372 16.008 11.756 16.428 12.536C16.86 11.756 17.544 11.372 18.3 11.372C19.332 11.372 20.268 12.236 20.268 13.292C20.268 14.144 19.968 14.948 18.96 16.328C17.472 18.368 17.112 19.004 16.716 20H16.152ZM16.428 18.956C16.728 18.344 17.256 17.54 17.964 16.568C18.672 15.596 19.116 14.888 19.308 14.468C19.5 14.048 19.596 13.652 19.596 13.292C19.596 12.608 18.996 12.044 18.3 12.044C17.604 12.044 17.016 12.644 16.74 13.64H16.128C15.828 12.56 15.24 12.044 14.58 12.044C13.896 12.044 13.284 12.608 13.284 13.292C13.284 13.64 13.38 14.024 13.56 14.444C13.74 14.864 14.184 15.548 14.88 16.496C15.576 17.432 16.092 18.26 16.428 18.956Z" fill="white"/>
</svg>
